<?xml version="1.0" encoding="UTF-8" standalone="no"?>
<!-- Created with Inkscape (http://www.inkscape.org/) -->

<svg
   xmlns:dc="http://purl.org/dc/elements/1.1/"
   xmlns:cc="http://creativecommons.org/ns#"
   xmlns:rdf="http://www.w3.org/1999/02/22-rdf-syntax-ns#"
   xmlns:svg="http://www.w3.org/2000/svg"
   xmlns="http://www.w3.org/2000/svg"
   xmlns:sodipodi="http://sodipodi.sourceforge.net/DTD/sodipodi-0.dtd"
   xmlns:inkscape="http://www.inkscape.org/namespaces/inkscape"
   width="210mm"
   height="297mm"
   viewBox="0 0 210 297"
   version="1.1"
   id="svg8"
   inkscape:version="0.92.4 (5da689c313, 2019-01-14)"
   sodipodi:docname="khang.svg"
   inkscape:export-filename="C:\Users\gael\Desktop\khang.png"
   inkscape:export-xdpi="96"
   inkscape:export-ydpi="96">
  <title
     id="title7673">khang</title>
  <defs
     id="defs2" />
  <sodipodi:namedview
     id="base"
     pagecolor="#ffffff"
     bordercolor="#666666"
     borderopacity="1.0"
     inkscape:pageopacity="0.0"
     inkscape:pageshadow="2"
     inkscape:zoom="0.4792789"
     inkscape:cx="473.00647"
     inkscape:cy="561.25984"
     inkscape:document-units="mm"
     inkscape:current-layer="svg8"
     showgrid="false"
     inkscape:window-width="1280"
     inkscape:window-height="737"
     inkscape:window-x="-8"
     inkscape:window-y="-8"
     inkscape:window-maximized="1" />
  <metadata
     id="metadata5">
    <rdf:RDF>
      <cc:Work
         rdf:about="">
        <dc:format>image/svg+xml</dc:format>
        <dc:type
           rdf:resource="http://purl.org/dc/dcmitype/StillImage" />
        <dc:title>khang</dc:title>
      </cc:Work>
    </rdf:RDF>
  </metadata>
  <g
     inkscape:label="Layer 1"
     inkscape:groupmode="layer"
     id="layer1"
     style="fill:#000000"
     inkscape:export-xdpi="96"
     inkscape:export-ydpi="96">
    <flowRoot
       xml:space="preserve"
       id="flowRoot7645"
       style="font-style:normal;font-variant:normal;font-weight:normal;font-stretch:normal;font-size:85.33333588px;line-height:1.25;font-family:Pristina;-inkscape-font-specification:'Pristina, Normal';font-variant-ligatures:normal;font-variant-caps:normal;font-variant-numeric:normal;font-feature-settings:normal;text-align:start;letter-spacing:0px;word-spacing:0px;writing-mode:lr-tb;text-anchor:start;fill:#000000;fill-opacity:1;stroke:none"
       transform="matrix(0.4400587,0,0,0.58433512,-30.341584,-162.27116)"><flowRegion
         id="flowRegion7647"
         style="font-style:normal;font-variant:normal;font-weight:normal;font-stretch:normal;font-size:85.33333588px;font-family:Pristina;-inkscape-font-specification:'Pristina, Normal';font-variant-ligatures:normal;font-variant-caps:normal;font-variant-numeric:normal;font-feature-settings:normal;text-align:start;writing-mode:lr-tb;text-anchor:start;fill-opacity:1;fill:#000000"><rect
           id="rect7649"
           width="653.06445"
           height="208.64677"
           x="104.32339"
           y="469.45526"
           style="font-style:normal;font-variant:normal;font-weight:normal;font-stretch:normal;font-size:85.33333588px;font-family:Pristina;-inkscape-font-specification:'Pristina, Normal';font-variant-ligatures:normal;font-variant-caps:normal;font-variant-numeric:normal;font-feature-settings:normal;text-align:start;writing-mode:lr-tb;text-anchor:start;fill-opacity:1;fill:#000000" /></flowRegion><flowPara
         id="flowPara7651"
         style="fill-opacity:1;fill:#000000">Khang'sScript</flowPara></flowRoot>    <path
       style="fill:#000000;stroke-width:0.26458332"
       id="path7667"
       d="m 19.098952,160.99923 c 1.394905,0.0544 2.791711,0.0361 4.187394,0.0305 1.291871,-0.0112 2.58372,-0.002 3.875601,-0.003 1.54513,0.008 3.090212,0.0176 4.635418,0.0116 1.722599,0.0893 3.423812,-0.12453 5.136878,-0.257 2.931115,-0.36109 5.784207,-1.14902 8.681952,-1.70109 2.443091,-0.57657 4.906905,-1.02158 7.406405,-1.24984 1.416529,-0.11888 2.838344,-0.13317 4.258881,-0.1356 1.38811,0.008 2.776196,0.0243 4.164322,0.0281 1.562161,-0.005 3.124311,10e-4 4.686464,0.007 1.76748,0.0123 3.535008,0.006 5.302496,-10e-4 1.45523,-0.0102 2.91047,-0.007 4.365726,-0.0133 1.387493,0.003 2.774987,0.002 4.162483,0.003 1.263131,-0.003 2.526255,-0.008 3.789386,-0.0103 1.00039,0.0322 1.945765,-0.35378 2.878315,-0.66625 0.673851,-0.27104 1.418029,-0.2207 2.113447,-0.3654 0.309274,-0.0644 0.599974,-0.19825 0.902546,-0.28904 0.618588,-0.14287 0.305578,-0.0806 0.939168,-0.18629 0,0 -6.492084,4.91804 -6.492084,4.91804 v 0 c -0.608883,0.14611 -0.306266,0.0692 -0.907889,0.23047 -0.990039,0.24378 -2.024469,0.30036 -2.982161,0.68025 -0.97863,0.31397 -1.983441,0.50962 -3.016694,0.44822 -1.253636,-0.003 -2.50726,-0.008 -3.760896,-0.0103 -1.390089,2.6e-4 -2.780175,-1e-5 -4.170264,0.003 -1.443104,-0.006 -2.886192,-0.003 -4.329272,-0.0132 -1.766628,-0.007 -3.533293,-0.013 -5.299916,-0.001 -1.566698,0.005 -3.133421,0.0112 -4.700111,0.001 -1.40272,-0.001 -2.805454,0.006 -4.208164,0.007 -1.37732,0.001 -2.756021,0.0146 -4.129275,0.13258 -2.427817,0.23356 -4.82129,0.68592 -7.205197,1.19647 -2.953623,0.58494 -5.864614,1.41248 -8.864639,1.73568 -1.742779,0.1736 -3.483708,0.31701 -5.237565,0.24299 -1.555864,-0.006 -3.111604,0.004 -4.667394,0.0116 -1.289088,-0.001 -2.578142,0.008 -3.867218,-0.003 -1.423653,-0.006 -2.848255,-0.0225 -4.271209,0.0305 0,0 6.623066,-4.81194 6.623066,-4.81194 z"
       inkscape:connector-curvature="0" />
    <path
       style="fill:#000000;stroke-width:0.26458332"
       id="path7669"
       d="m 105.27633,154.93227 c 1.79657,0.0622 3.59529,0.0546 5.39277,0.0492 1.73643,0.11129 3.45071,0.34942 5.12088,0.84028 1.42793,0.4714 2.91803,0.64837 4.41098,0.74359 1.56056,0.22909 3.02251,0.84193 4.53604,1.25795 1.23001,0.37906 2.53191,0.28993 3.77861,0.54026 1.2853,0.34054 2.5529,0.68288 3.87623,0.85317 1.72251,0.16661 3.45576,0.17817 5.18488,0.18692 1.69635,0.006 3.39259,-0.0207 5.08889,-0.0213 1.58519,-0.034 3.17154,0.0687 4.75125,-0.0779 1.97466,-0.14874 3.93405,-0.32047 5.86251,-0.7851 1.6125,-0.30389 3.15732,-0.84457 4.72651,-1.30154 1.32024,-0.3299 2.60717,-0.75363 3.86683,-1.25923 0.75581,-0.64411 1.66335,-0.83858 2.62092,-0.94812 0.16935,-0.012 0.3387,-0.024 0.50805,-0.036 0,0 -6.52891,4.85886 -6.52891,4.85886 v 0 c -0.16098,0.026 -0.32197,0.0521 -0.48296,0.0781 -0.90508,0.21992 -1.67414,0.67067 -2.50995,1.06259 -1.25609,0.46781 -2.56545,0.78186 -3.84789,1.16815 -1.55637,0.492 -3.13456,0.90142 -4.73507,1.22479 -1.95973,0.37479 -3.94518,0.52369 -5.93117,0.69518 -1.6062,0.0821 -3.21464,0.0602 -4.82262,0.0607 -1.68072,0.005 -3.36152,-0.0123 -5.0422,-0.0214 -1.7717,-0.0169 -3.55107,0.001 -5.31118,-0.23294 -1.32151,-0.21593 -2.59771,-0.59889 -3.91327,-0.84016 -1.27653,-0.14758 -2.56349,-0.25025 -3.79444,-0.65181 -1.46182,-0.44792 -2.90836,-0.99767 -4.4462,-1.12012 -1.52188,-0.14369 -3.02586,-0.40083 -4.48331,-0.87654 -1.62419,-0.40482 -3.2806,-0.64663 -4.95592,-0.69577 -1.84262,-0.006 -3.6863,-0.0111 -5.528098,0.0492 0,0 6.607838,-4.80087 6.607838,-4.80087 z"
       inkscape:connector-curvature="0" />
    <path
       style="fill:#000000;stroke-width:0.26458332"
       id="path7671"
       d="m 180.1992,156.32881 c 1.30081,-0.67388 2.67436,-1.19141 4.08942,-1.56608 1.24912,-0.30329 2.53442,-0.35596 3.81345,-0.37976 1.26161,0.004 2.52323,0.007 3.78484,0.009 1.23804,-0.0771 2.42682,0.0599 3.61465,0.40653 1.30863,0.41095 2.67358,0.56378 4.03607,0.65508 0,0 -6.59035,4.70247 -6.59035,4.70247 v 0 c -1.38676,-0.14485 -2.76233,-0.37527 -4.10448,-0.76134 -1.16472,-0.23119 -2.33177,-0.27212 -3.51789,-0.23886 -1.25857,-0.007 -2.51779,-0.0246 -3.7759,0.0182 -1.23071,0.0503 -2.46353,0.15349 -3.64908,0.51242 -1.42415,0.45214 -2.77795,1.06694 -4.13025,1.69857 0,0 6.42952,-5.05592 6.42952,-5.05592 z"
       inkscape:connector-curvature="0" />
  </g>
</svg>
